<?xml version="1.0" encoding="iso-8859-1"?>
<!-- Generator: Adobe Illustrator 19.0.0, SVG Export Plug-In . SVG Version: 6.00 Build 0)  -->
<svg version="1.1" id="Capa_1" xmlns="http://www.w3.org/2000/svg" xmlns:xlink="http://www.w3.org/1999/xlink" x="0px" y="0px"
	 viewBox="0 0 464 464" style="enable-background:new 0 0 464 464;" xml:space="preserve">
<g>
	<circle style="fill:#B53C33;" cx="232" cy="232" r="40"/>
	<path style="fill:#B53C33;" d="M232,368l24,96h40l-24-104v-56h16c26.512,0,48-21.488,48-48v-64h-32v64c0,8.84-7.16,16-16,16H176
		c-8.84,0-16-7.16-16-16v-64h-32v64c0,26.512,21.488,48,48,48h16v56l-24,104h40L232,368z"/>
</g>
<rect x="168" style="fill:#DDA137;" width="128" height="192"/>
<g>
	<rect x="296" y="64" style="fill:#DDD8CE;" width="96" height="128"/>
	<rect x="72" y="64" style="fill:#DDD8CE;" width="96" height="128"/>
</g>
<g>
	<rect x="208" y="144" style="fill:#201F2D;" width="48" height="48"/>
	<rect x="192" y="24" style="fill:#201F2D;" width="16" height="16"/>
	<rect x="224" y="24" style="fill:#201F2D;" width="16" height="16"/>
	<rect x="256" y="24" style="fill:#201F2D;" width="16" height="16"/>
	<rect x="192" y="56" style="fill:#201F2D;" width="16" height="16"/>
	<rect x="224" y="56" style="fill:#201F2D;" width="16" height="16"/>
	<rect x="256" y="56" style="fill:#201F2D;" width="16" height="16"/>
	<rect x="320" y="88" style="fill:#201F2D;" width="16" height="16"/>
	<rect x="352" y="88" style="fill:#201F2D;" width="16" height="16"/>
	<rect x="320" y="120" style="fill:#201F2D;" width="16" height="16"/>
	<rect x="352" y="120" style="fill:#201F2D;" width="16" height="16"/>
	<rect x="96" y="88" style="fill:#201F2D;" width="16" height="16"/>
	<rect x="128" y="88" style="fill:#201F2D;" width="16" height="16"/>
	<rect x="96" y="120" style="fill:#201F2D;" width="16" height="16"/>
	<rect x="128" y="120" style="fill:#201F2D;" width="16" height="16"/>
	<rect x="192" y="88" style="fill:#201F2D;" width="16" height="16"/>
	<rect x="224" y="88" style="fill:#201F2D;" width="16" height="16"/>
	<rect x="256" y="88" style="fill:#201F2D;" width="16" height="16"/>
	<rect x="192" y="136" style="fill:#201F2D;" width="80" height="16"/>
</g>
<g>
</g>
<g>
</g>
<g>
</g>
<g>
</g>
<g>
</g>
<g>
</g>
<g>
</g>
<g>
</g>
<g>
</g>
<g>
</g>
<g>
</g>
<g>
</g>
<g>
</g>
<g>
</g>
<g>
</g>
</svg>
